<?xml version="1.0" encoding="UTF-8"?>
<svg id="Layer_1" data-name="Layer 1" xmlns="http://www.w3.org/2000/svg" viewBox="0 0 50 50">
  <defs>
    <style>
      .cls-1 {
        fill: #d1d1d6;
      }

      .cls-2 {
        fill: #231f20;
      }

      .cls-3 {
        fill: #3a3a3c;
      }

      .cls-4 {
        fill: #575757;
      }
    </style>
  </defs>
  <path class="cls-4" d="M16.48,23.28c-.4-.11-.74-.2-.96-.32l1.58,.41c-.11,.03-.21,.03-.32,0l-.3-.08Z"/>
  <path class="cls-4" d="M17.66,21.19l-1.98,.19c.22-.22,.45-.41,.66-.55,.19-.13,.41-.35,.63-.65l.69,1.01Z"/>
  <path class="cls-4" d="M17.89,22.88l-2.63-.69s.02-.06,.03-.09l2.81-.25,.31,.46c-.18,.22-.35,.41-.52,.58Z"/>
  <path class="cls-4" d="M18.65,23.08c.05-.07,.11-.13,.16-.19l.2,.29-.36-.09Z"/>
  <path class="cls-4" d="M19.42,18.86l-1.77,.27c.27-.47,.57-1.01,.87-1.63l.9,1.36Z"/>
  <path class="cls-4" d="M18.44,21.12l-.88-1.28,2.27-.35,.23,.35c-.11,.17-.22,.34-.33,.51-.14,.24-.29,.47-.44,.71l-.85,.08Z"/>
  <path class="cls-4" d="M20.73,16.3l-1.7,.15c.22-.45,.44-.91,.67-1.4l1.03,1.25Z"/>
  <path class="cls-4" d="M20.32,20.71c.05-.08,.1-.16,.15-.24l.3,.45-.61,.05c.05-.08,.11-.17,.16-.25Z"/>
  <path class="cls-4" d="M20.87,18.64l-.71,.1-1.06-1.61,2.16-.2,.44,.54c-.3,.42-.57,.82-.83,1.17Z"/>
  <path class="cls-3" d="M4.73,35.4c-.24-1.17,.04-2.27,.56-3.2,.13,.35,.34,.74,.74,1.07,.54,.45,1.28,.68,2.22,.68,.59,0,1.26-.08,2-.27,2.91-.7,5.71-1.79,7.76-2.59,1.42-.54,2.53-.98,3.09-1.06,1.24-.19,3.68,.52,4.6,1.16-3.13,1.94-7.01,3.53-8.25,3.96-2.2,.75-9.97,2.13-12.2,.86-.3-.17-.46-.37-.52-.61Z"/>
  <path class="cls-4" d="M22.13,16.85s-.02,.02-.02,.03l-.02-.03h.03Z"/>
  <path class="cls-4" d="M21.83,18.49c.1-.15,.21-.3,.33-.46l.3,.37-.63,.09Z"/>
  <path class="cls-4" d="M22.62,16.12l-1.06,.1-.89-1.08,2.11,.74c-.05,.08-.11,.16-.16,.24Z"/>
  <path class="cls-3" d="M23.19,15.3l-3.1-1.09c.56-1.19,1.04-2.21,1.35-2.74,.29-.49,.6-.78,.87-.79h.03c.25,0,.44,.22,.45,.23,.07,.08,.18,.13,.27,.13,.11,0,.21-.06,.27-.14,.02-.02,.33-.45,.57-.85,.48,0,2.11,.59,3.41,1.1-.41,.14-.86,.39-1.34,.81-.93,.82-1.88,2.08-2.78,3.35Z"/>
  <path class="cls-3" d="M16.71,25.83c-.95-.07-2.78-.85-3.57-1.22,.16-.22,.34-.46,.54-.74,.25-.35,.54-.76,.84-1.16,.02,.1,.03,.2,.08,.3,.24,.54,.88,.72,1.69,.94l.3,.08c.13,.04,.25,.06,.37,.06,.38,0,.74-.18,1.1-.46l1.66,.44s.06,0,.08,0c.07,0,.14-.02,.19-.06t0,0s0,0,.02,0c.05-.04,.08-.1,.1-.16t0-.02s0,0,0,0v-.14s0-.03-.02-.06c0-.02-.02-.04-.03-.07h0s-.84-1.24-.84-1.24c.14-.19,.29-.41,.43-.62l1.72-.16c.06,0,.1-.03,.14-.05h.02s.02-.03,.03-.03c.02-.02,.03-.03,.05-.05,0-.02,.02-.04,.03-.06,0-.02,.03-.03,.03-.06,0-.03,0-.05,0-.08,0-.02,0-.03,0-.04,0,0,0,0,0-.02,0-.02,0-.03-.02-.05,0-.03-.02-.06-.03-.08h0l-.78-1.18c.14-.2,.26-.38,.39-.56l1.9-.3c.06,0,.11-.03,.15-.07,0,0,.02,0,.02,0,0,0,.02-.02,.03-.03,.02-.02,.03-.03,.04-.05,.02-.02,.03-.03,.03-.06,0-.02,0-.04,.02-.06v-.08s0-.03,0-.03c0,0,0-.02,0-.03,0-.02,0-.04-.03-.07,0-.02-.02-.03-.03-.05,0,0,0-.02-.02-.03l-.81-.99c.08-.12,.15-.23,.24-.35l.2-.3,1.9-.18c.06,0,.11-.03,.15-.06,.02,0,.02,0,.03-.02,.04-.04,.08-.08,.1-.14,0,0,0,0,0,0h0s0-.04,0-.05c0-.03,0-.06,0-.09,0-.03,0-.05-.02-.08,0-.02,0-.03-.02-.04-.03-.08-.11-.15-.2-.18l-1.12-.4c.84-1.19,1.72-2.33,2.57-3.07,1.33-1.17,2.31-.75,2.36-.73,0,0,0,0,0,0,.15,.07,.28,.1,.4,.12,.09,.08,.31,.27,.65,.5-.94,1.44-5.33,8.17-7.07,10.18-1.87,2.15-4.81,3.35-6.06,3.28Z"/>
  <g>
    <path class="cls-3" d="M29.97,11.62c.1-.06,.2-.13,.32-.2,.28-.19,.66-.43,1.21-.75,1.68-1,2.43-3.57,2.75-4.66,.04-.15,.08-.26,.09-.33,.07-.16,.89-.42,2.26-.39-.26,.68,.15,1.84,.78,3.4,.24,.57,.46,1.11,.5,1.38,.11,.67-1.76,1.98-4.24,2.61-1.51,.39-3-.55-3.68-1.06Z"/>
    <path class="cls-4" d="M38.3,15.06c-.15,.92-.2,1.84-.08,2.7-1.08,.24-4.74,1.12-7.16,2.04-2.03,.78-3.76,2.42-5.43,4.02-.74,.7-1.44,1.38-2.15,1.94-1.57,1.28-2.98,.36-3.59-.17,1.17-.59,2.41-1.46,3.4-2.61,1.3-1.5,3.95-5.42,5.69-8.05,.79,.24,3.34,.91,5.77,.91,1.33,0,2.62-.21,3.57-.79Z"/>
    <path class="cls-4" d="M6.47,32.75c-.57-.46-.64-1.11-.65-1.34,.59-.76,1.31-1.33,1.94-1.65,1.16-.57,2.82-2.11,4.93-4.6,.71,.33,2.81,1.28,3.97,1.35h.15c.62,0,1.5-.22,2.48-.64,.38,.37,1.33,1.16,2.54,1.16,.62,0,1.31-.21,2.02-.79,.73-.58,1.44-1.26,2.19-1.98,1.63-1.55,3.32-3.16,5.24-3.89,2.37-.91,5.98-1.77,7.06-2.02,.07,.27,.15,.52,.26,.77-3.02,2.53-7.65,6.48-9.07,8.74-.63,.99-1.82,1.99-3.23,2.93-1.01-.87-3.84-1.66-5.31-1.44-.63,.1-1.72,.52-3.24,1.11-2.04,.79-4.82,1.86-7.67,2.55-1.66,.41-2.92,.32-3.62-.26Z"/>
    <path class="cls-4" d="M38.03,8.42c-.36-.88-1.03-2.53-.77-2.92,0,0,.03-.03,.08-.03,.45,.24,.84,.75,1.29,1.34,.19,.24,.38,.49,.59,.74,.41,.48,.78,.98,1.15,1.57-.31,.6-1.3,2.61-1.84,4.87-1.87,2.15-7.54,.79-9.16,.35,.48-.73,.84-1.3,1.06-1.61,.66,.37,1.52,.72,2.47,.72,.3,0,.61-.03,.92-.12,2.12-.54,4.98-1.94,4.75-3.38-.06-.35-.28-.9-.53-1.53Z"/>
    <path class="cls-4" d="M40.78,9.83c.42,.74,.88,1.63,1.43,2.79,1.02,2.15,.24,2.97-.52,3.76-.13,.14-.25,.27-.36,.4-.19,.22-1.09,.99-2.16,1.88-1.06-2.79,.87-7.27,1.62-8.83Z"/>
    <path class="cls-1" d="M32.66,28.59c-.99,1.66-2.09,3.5-3.13,4.38-.9,.65-1.83,1.29-2.72,1.84-.12,.08-.26,.17-.43,.28-2.13,1.39-7.79,5.1-17.7,3.63-2.82-.41-3.76-1.23-4.04-1.84-.1-.21-.13-.41-.13-.57,.12,.1,.24,.2,.4,.29,.78,.45,2.04,.62,3.47,.62,3.5,0,8.05-1,9.28-1.43,2.08-.72,10.28-4.11,12.45-7.56,1.43-2.27,6.37-6.43,9.33-8.91,1.42-1.2,2.17-1.83,2.4-2.1,.1-.12,.21-.24,.33-.36,.43-.45,.95-.99,1.13-1.81,.52,.93,1.23,2.19,1.65,2.97-.12,.26-.46,.8-1.25,.65-1.18-.24-1.89,.47-2.15,.95-.63,.47-5.14,3.84-6.77,5.77-.68,.79-1.38,1.98-2.13,3.22Z"/>
    <path class="cls-4" d="M43.85,21.63c.1,.17,.13,.37,.08,.57-.06,.19-.18,.35-.35,.46l-4.16,2.4c-.17,.1-.37,.13-.57,.08-.19-.05-.35-.18-.46-.35-.2-.36-.08-.82,.28-1.02l4.16-2.41c.11-.06,.24-.09,.37-.09,.07,0,.13,0,.19,.03,.19,.05,.35,.17,.46,.35Z"/>
    <path class="cls-3" d="M45.32,18.72c-.34,.42-.9,.78-1.75,.6-1.04-.2-1.41,.61-1.43,.64-.02,.06-.06,.1-.11,.14-.04,.04-5.04,3.74-6.72,5.72-.64,.74-1.33,1.9-2.06,3.13-.47,.79-.95,1.58-1.43,2.31,.83-.66,1.45-1.2,1.71-1.49,.45-.48,2.43-1.55,5.64-3.24,1.7-.9,3.46-1.82,4.67-2.54,2.8-1.64,1.75-4.57,1.46-5.25Zm-.82,3.62c-.09,.35-.32,.64-.63,.82l-4.17,2.4c-.2,.12-.43,.18-.67,.18-.11,0-.24,0-.35-.04-.35-.09-.64-.31-.82-.63-.37-.64-.15-1.46,.49-1.83l4.17-2.41c.3-.18,.67-.22,1.01-.13,.35,.09,.64,.31,.82,.63,.18,.3,.23,.67,.14,1.01Z"/>
    <g>
      <path class="cls-2" d="M45.88,18.31c-.34-.72-2.34-4.27-2.6-4.72-.09-.38-.23-.8-.45-1.28-1.25-2.65-2.03-3.96-3.08-5.21-.21-.24-.39-.49-.57-.72-.72-.93-1.34-1.74-2.38-1.78-.64-.03-2.77-.05-3.09,.83-.03,.07-.07,.2-.11,.37-.27,.93-.99,3.4-2.45,4.26-.56,.33-.95,.58-1.23,.77q-.6,.39-.83,.29c-.54-.24-5.25-2.36-5.71-1.54-.11,.2-.26,.42-.38,.6-.19-.12-.44-.21-.72-.19-.52,.03-.99,.41-1.42,1.13-.35,.58-.86,1.69-1.46,2.97-.83,1.77-1.88,4.03-2.69,5.28,0,0,0,.01-.01,.02,0,0,0,.02-.01,.03-.27,.41-.51,.71-.71,.84-.99,.64-2.02,2.07-2.84,3.22-.31,.43-.57,.8-.78,1.04-2.13,2.53-3.77,4.09-4.88,4.63-1.71,.83-3.94,3.38-3.42,6.27-.13,.27-.4,.97-.03,1.75,.51,1.12,2.05,1.87,4.57,2.25,1.63,.24,3.15,.35,4.55,.35,7.38,0,11.78-2.88,13.62-4.09,.16-.1,.3-.2,.42-.27,.82-.51,1.67-1.09,2.48-1.67,.09-.06,.18-.12,.27-.19,1.94-1.39,3.63-2.77,4.13-3.31,.4-.43,3.09-1.85,5.46-3.11,1.71-.9,3.47-1.83,4.7-2.55,3.52-2.06,1.88-5.83,1.68-6.25Zm-4.2-1.94c-.13,.13-.25,.26-.36,.39-.19,.22-1.09,.99-2.16,1.89-1.07-2.79,.87-7.28,1.62-8.83,.42,.74,.88,1.63,1.42,2.78,1.02,2.15,.24,2.97-.52,3.77Zm-12.71-1.43c.8,.23,3.34,.91,5.77,.91,1.33,0,2.62-.2,3.57-.79-.15,.92-.2,1.84-.08,2.7-1.08,.25-4.73,1.11-7.16,2.05-2.03,.78-3.76,2.43-5.43,4.02-.74,.71-1.45,1.38-2.15,1.95-1.57,1.27-2.99,.36-3.6-.17,1.17-.59,2.41-1.46,3.4-2.61,1.3-1.5,3.95-5.43,5.68-8.05Zm9.66-8.14c.19,.24,.38,.49,.59,.74,.41,.48,.77,.98,1.14,1.57-.31,.6-1.29,2.61-1.84,4.86-1.87,2.15-7.54,.8-9.16,.36,.48-.73,.85-1.3,1.06-1.62,.67,.37,1.53,.72,2.47,.72,.3,0,.61-.03,.92-.11,2.11-.54,4.98-1.95,4.74-3.38-.06-.34-.28-.89-.53-1.52-.36-.89-1.02-2.53-.77-2.92,0-.01,.03-.03,.08-.04,.45,.25,.84,.75,1.3,1.34Zm-7.14,3.85c1.69-1,2.44-3.56,2.75-4.66,.04-.15,.08-.26,.1-.33,.06-.16,.88-.42,2.26-.38-.27,.67,.15,1.84,.78,3.39,.23,.57,.45,1.11,.49,1.38,.11,.66-1.75,1.97-4.24,2.61-1.51,.39-3-.54-3.68-1.05,.1-.06,.2-.12,.32-.2,.28-.18,.66-.43,1.2-.75Zm-10.05,.81c.29-.49,.6-.77,.87-.79,.01,0,.02,0,.03,0,.25,0,.44,.22,.45,.23,.07,.08,.18,.13,.27,.13,.11,0,.21-.05,.27-.14,.01-.02,.33-.45,.57-.86,.48,.01,2.11,.59,3.41,1.1-.4,.14-.86,.39-1.34,.81-.93,.82-1.88,2.07-2.78,3.35l-3.1-1.09c.56-1.19,1.03-2.21,1.35-2.74Zm1.18,4.65l-1.06,.1-.89-1.08,2.11,.74c-.05,.08-.11,.16-.16,.23Zm-1.75,2.51l-.71,.11-1.06-1.61,2.16-.2,.44,.53c-.29,.43-.57,.83-.83,1.17Zm1.28-.62l.31,.37-.64,.1c.11-.15,.22-.31,.33-.47Zm-1.68,2.44l.29,.45-.61,.06c.05-.09,.11-.17,.16-.26,.05-.08,.1-.16,.16-.24Zm-.74-.12c-.14,.23-.29,.47-.45,.7l-.85,.08-.88-1.29,2.27-.35,.23,.35c-.11,.17-.21,.33-.32,.51Zm-1.84,2.54l-2.63-.69s.02-.06,.03-.09l2.81-.26,.31,.46c-.17,.22-.35,.42-.52,.58Zm.92,0l.2,.29-.36-.1c.06-.06,.11-.13,.16-.19Zm-1.72,.49c-.11,.02-.21,.02-.32,0l-.3-.08c-.4-.11-.73-.21-.96-.33l1.58,.42Zm2.6-8.33l1.03,1.25-1.7,.16c.21-.45,.44-.92,.67-1.4Zm-1.18,2.45l.9,1.36-1.77,.27c.27-.47,.57-1.02,.88-1.64Zm3.57-.63h.03s-.01,.01-.02,.02l-.02-.02Zm-5.75,3.97c.19-.12,.4-.35,.63-.65l.7,1.02-1.98,.18c.23-.22,.45-.41,.66-.55Zm-1.81,1.89c.01,.1,.03,.2,.08,.29,.24,.54,.88,.72,1.69,.95l.3,.08c.13,.04,.25,.05,.37,.05,.38,0,.74-.18,1.1-.45l1.66,.44s.06,.01,.09,.01c.07,0,.13-.02,.19-.06,0,0,0,0,0,0,0,0,0-.01,.01-.01,.05-.04,.09-.1,.11-.16,0,0,0,0,0-.01,0,0,0,0,0-.01,0-.02,0-.05,0-.08,0-.02,0-.04,0-.06,0-.02-.01-.04-.02-.06,0-.02-.02-.05-.03-.07,0,0,0,0,0-.01l-.84-1.23c.14-.2,.29-.41,.43-.62l1.72-.16c.05,0,.1-.02,.15-.05,0,0,0,0,.01,0,.01,0,.02-.02,.03-.03,.02-.02,.04-.03,.05-.05,.01-.02,.02-.04,.03-.06,0-.02,.02-.04,.02-.06,0-.03,0-.05,0-.08,0-.01,0-.03,0-.04,0,0,0,0,0-.01,0-.02,0-.04-.02-.06,0-.03-.02-.06-.03-.08,0,0,0,0,0,0l-.78-1.18c.13-.2,.26-.38,.39-.56l1.9-.29c.06,0,.11-.04,.15-.07,0,0,.01,0,.01,0,.01,0,.02-.02,.03-.03,.02-.02,.03-.03,.04-.05,.01-.02,.02-.04,.03-.06,0-.02,.01-.04,.02-.06,0-.02,0-.05,0-.07,0-.01,0-.03,0-.04,0,0,0-.01,0-.02,0-.02-.01-.04-.02-.07,0-.02-.02-.04-.03-.06,0,0,0-.02-.01-.02l-.82-.99c.08-.12,.16-.23,.24-.35,.07-.1,.14-.2,.21-.31l1.9-.17c.06,0,.11-.03,.15-.06,.01,0,.02-.02,.03-.02,.05-.04,.08-.08,.1-.14,0,0,0,0,0-.01,0,0,0,0,0,0,0-.02,0-.03,0-.05,0-.03,.01-.06,0-.09,0,0,0,0,0,0,0-.03-.01-.05-.02-.07,0-.01,0-.03-.01-.04-.04-.08-.11-.15-.2-.18l-1.12-.39c.84-1.19,1.72-2.34,2.56-3.07,1.34-1.17,2.3-.75,2.36-.72,0,0,0,0,.01,0,.15,.07,.28,.11,.39,.12,.1,.09,.31,.27,.65,.5-.93,1.44-5.33,8.17-7.07,10.18-1.86,2.15-4.81,3.34-6.06,3.27-.96-.06-2.78-.86-3.57-1.22,.16-.21,.34-.46,.54-.74,.26-.36,.55-.76,.85-1.16Zm-6.77,7.05c1.16-.56,2.82-2.12,4.93-4.6,.71,.33,2.81,1.28,3.97,1.35,.05,0,.1,0,.16,0,.61,0,1.5-.22,2.48-.64,.38,.37,1.33,1.15,2.54,1.15,.62,0,1.31-.21,2.01-.78,.73-.59,1.44-1.26,2.19-1.98,1.63-1.55,3.32-3.16,5.24-3.89,2.38-.91,5.99-1.77,7.06-2.02,.07,.27,.15,.52,.26,.77-3.01,2.54-7.65,6.48-9.07,8.75-.62,.99-1.82,1.99-3.23,2.93-1.01-.87-3.84-1.66-5.31-1.44-.63,.1-1.73,.52-3.24,1.1-2.03,.79-4.81,1.86-7.67,2.56-1.67,.41-2.92,.32-3.62-.26-.56-.46-.64-1.11-.65-1.35,.59-.75,1.31-1.33,1.94-1.64Zm-2.47,2.44c.12,.35,.34,.74,.73,1.07,.54,.45,1.29,.68,2.23,.68,.59,0,1.26-.09,2-.27,2.9-.7,5.7-1.79,7.75-2.58,1.42-.55,2.53-.98,3.09-1.07,1.24-.2,3.67,.51,4.6,1.15-3.12,1.95-7.01,3.53-8.25,3.96-2.19,.76-9.96,2.13-12.19,.86-.3-.17-.47-.37-.51-.61-.24-1.16,.04-2.27,.56-3.2Zm21.52,2.62c-.12,.08-.27,.17-.43,.28-2.13,1.4-7.79,5.11-17.7,3.63-2.82-.42-3.76-1.24-4.05-1.85-.1-.21-.12-.4-.12-.58,.11,.11,.24,.21,.39,.29,.78,.44,2.04,.61,3.47,.61,3.5,0,8.05-.99,9.28-1.42,2.08-.72,10.28-4.12,12.45-7.56,1.43-2.27,6.37-6.43,9.33-8.92,1.42-1.2,2.17-1.83,2.4-2.1,.1-.12,.21-.24,.33-.36,.43-.45,.95-.99,1.13-1.81,.52,.93,1.23,2.19,1.64,2.97-.12,.26-.46,.8-1.25,.65-1.18-.24-1.89,.47-2.14,.95-.63,.47-5.14,3.84-6.77,5.77-.67,.79-1.38,1.97-2.12,3.22-.99,1.65-2.09,3.5-3.14,4.39-.89,.64-1.83,1.28-2.72,1.84Zm17.05-10.84c-1.22,.71-2.97,1.64-4.67,2.54-3.21,1.7-5.2,2.76-5.64,3.25-.26,.29-.89,.83-1.72,1.48,.48-.73,.96-1.52,1.43-2.3,.73-1.22,1.42-2.38,2.06-3.13,1.67-1.97,6.67-5.68,6.72-5.71,.05-.04,.09-.08,.11-.14,.01-.03,.39-.84,1.42-.64,.85,.17,1.41-.19,1.74-.6,.29,.69,1.34,3.62-1.46,5.26Z"/>
      <path class="cls-2" d="M43.55,20.7c-.35-.09-.71-.05-1.02,.13l-4.16,2.4c-.64,.37-.86,1.19-.49,1.84,.18,.31,.47,.53,.82,.63,.12,.03,.24,.05,.35,.05,.23,0,.46-.06,.67-.18l4.16-2.4c.31-.18,.53-.47,.62-.82,.09-.35,.05-.71-.13-1.02-.18-.31-.47-.53-.82-.62Zm.37,1.49c-.05,.19-.17,.36-.35,.45l-4.16,2.4c-.17,.1-.38,.13-.57,.07-.19-.05-.35-.17-.45-.35-.21-.36-.08-.82,.27-1.02l4.16-2.4c.11-.07,.24-.1,.37-.1,.07,0,.13,0,.2,.03,.19,.05,.35,.18,.45,.35,.1,.17,.13,.37,.07,.57Z"/>
    </g>
  </g>
</svg>