<?xml version="1.0" encoding="UTF-8"?>
<svg id="Layer_1" data-name="Layer 1" xmlns="http://www.w3.org/2000/svg" viewBox="0 0 50 50">
  <defs>
    <style>
      .cls-1 {
        fill: #f5e7d8;
      }

      .cls-2 {
        fill: #231f20;
      }

      .cls-3 {
        fill: #575757;
      }
    </style>
  </defs>
  <path class="cls-1" d="M27,26.72h-4.21c-.35,0-.64,.29-.64,.64s.29,.64,.64,.64h4.21c.35,0,.64-.29,.64-.64s-.29-.64-.64-.64Z"/>
  <path class="cls-1" d="M11.88,16.68c0-.24,.19-.49,.49-.68h2.15c.3,.19,.49,.44,.49,.68,0,.46-.65,.95-1.56,.95s-1.56-.49-1.56-.95Z"/>
  <path class="cls-3" d="M14.24,14.44h-1.36c.49-1.55,1.5-4.44,2.91-6.32,.06-.08,.14-.16,.33-.17,1.61-.05,5.15,3.29,7.76,6.12-.13,.14-.25,.28-.33,.38h-.21c-5.99-5.44-6.64-5.36-6.94-5.34-.41,.05-1.07,.14-2.17,5.34Z"/>
  <rect class="cls-1" x="22.96" y="32.15" width="3.75" height="1.6"/>
  <path class="cls-1" d="M21.24,30.45v4.03c0,.57,.46,1.03,1.04,1.03h5.28c.57,0,1.03-.46,1.03-1.03v-4.03h-7.35Zm6.75,3.75c0,.46-.36,.84-.84,.84h-4.63c-.46,0-.84-.38-.84-.84v-2.5c0-.46,.38-.84,.84-.84h4.63c.47,0,.84,.38,.84,.84v2.5Z"/>
  <path class="cls-3" d="M25.95,14.44c-.09-.09-.21-.24-.33-.38,2.58-2.8,6.15-6.12,7.71-6.12h.03c.21,.02,.28,.09,.35,.17,1.41,1.88,2.42,4.77,2.89,6.32h-1.36c-1.07-5.2-1.74-5.29-2.15-5.34-.3-.03-.95-.09-6.94,5.34h-.21Z"/>
  <path class="cls-1" d="M34.78,16h2.07c.3,.19,.47,.44,.47,.68,0,.46-.63,.95-1.55,.95s-1.56-.49-1.56-.95c0-.25,.21-.51,.52-.7,.02,0,.03,.02,.05,.02Z"/>
  <path class="cls-1" d="M40.54,16v11.11c0,1.14-.93,2.05-2.07,2.05H11.55c-1.14,0-2.07-.92-2.07-2.05v-11.11c0-.16,.13-.28,.28-.28h1.12c-.17,.3-.28,.62-.28,.96,0,1.25,1.25,2.24,2.84,2.24s2.84-1,2.84-2.24c0-.35-.11-.66-.28-.96h17.2c-.16,.3-.27,.62-.27,.96,0,1.25,1.25,2.24,2.84,2.24s2.83-1,2.83-2.24c0-.35-.09-.66-.27-.96h1.91c.16,0,.28,.13,.28,.28Z"/>
  <path class="cls-1" d="M38.47,30.45c.79,0,1.5-.27,2.07-.73v10.29c0,1.14-.93,2.05-2.07,2.05H11.55c-1.14,0-2.07-.92-2.07-2.05v-10.29c.57,.46,1.28,.73,2.07,.73h8.41v4.03c0,1.26,1.04,2.31,2.32,2.31h5.28c1.26,0,2.31-1.04,2.31-2.31v-4.03h8.6Z"/>
  <g>
    <path class="cls-2" d="M40.24,14.43h-2.3c-.44-1.5-1.56-4.86-3.21-7.09-.31-.42-.77-.66-1.32-.68h-.07c-2.3,0-6.41,4.07-8.6,6.43-2.19-2.36-6.3-6.43-8.6-6.43h-.07c-.55,.02-1.01,.25-1.32,.68-1.65,2.23-2.77,5.59-3.21,7.09h-1.78c-.86,0-1.56,.7-1.56,1.56v24.01c0,1.84,1.5,3.34,3.34,3.34h26.92c1.84,0,3.34-1.5,3.34-3.34V15.99c0-.86-.7-1.56-1.56-1.56Zm-2.92,2.24c0,.45-.64,.96-1.56,.96s-1.56-.5-1.56-.96c0-.25,.2-.5,.52-.69,.02,0,.03,.02,.05,.02h2.07c.3,.19,.48,.43,.48,.67Zm-9.25-2.24c1.98-1.76,3.96-3.42,4.76-3.93,.3,.66,.74,2.29,1.1,3.93h-5.86Zm5.25-6.49h.04c.2,0,.28,.08,.34,.16,1.4,1.89,2.42,4.77,2.9,6.33h-1.36c-1.09-5.21-1.75-5.29-2.16-5.34-.3-.03-.95-.1-6.93,5.34h-.21c-.09-.1-.21-.23-.34-.38,2.59-2.8,6.15-6.11,7.72-6.11Zm-17.55,.16c.06-.08,.14-.15,.34-.16,1.61-.05,5.16,3.29,7.76,6.11-.13,.15-.25,.28-.34,.38h-.21c-5.99-5.44-6.62-5.36-6.94-5.34-.4,.05-1.07,.13-2.16,5.34h-1.36c.48-1.55,1.5-4.44,2.9-6.33Zm-3.41,7.9h2.16c.3,.19,.48,.43,.48,.67,0,.45-.64,.96-1.56,.96s-1.56-.5-1.56-.96c0-.24,.18-.48,.48-.67Zm3.19-1.57c.36-1.63,.8-3.27,1.1-3.93,.8,.51,2.78,2.17,4.76,3.93h-5.86Zm22.91,27.63H11.54c-1.14,0-2.06-.93-2.06-2.06v-10.29c.57,.45,1.28,.73,2.06,.73h8.41v4.02c0,1.28,1.04,2.32,2.32,2.32h5.28c1.28,0,2.32-1.04,2.32-2.32v-4.02h8.6c.78,0,1.49-.28,2.06-.73v10.29c0,1.14-.93,2.06-2.06,2.06Zm-17.23-11.62h7.35v4.02c0,.57-.47,1.04-1.04,1.04h-5.28c-.57,0-1.04-.47-1.04-1.04v-4.02Zm19.29-3.34c0,1.14-.93,2.06-2.06,2.06H11.54c-1.14,0-2.06-.93-2.06-2.06V15.99c0-.15,.13-.28,.28-.28h1.12c-.17,.29-.27,.61-.27,.96,0,1.26,1.25,2.24,2.84,2.24s2.84-.98,2.84-2.24c0-.35-.1-.67-.27-.96h17.19c-.17,.29-.27,.61-.27,.96,0,1.26,1.25,2.24,2.84,2.24s2.84-.98,2.84-2.24c0-.35-.1-.67-.27-.96h1.91c.15,0,.28,.13,.28,.28v11.11Z"/>
    <path class="cls-2" d="M22.51,35.02h4.63c.46,0,.84-.38,.84-.84v-2.48c0-.46-.38-.84-.84-.84h-4.63c-.46,0-.84,.38-.84,.84v2.48c0,.46,.38,.84,.84,.84Zm.44-2.88h3.75v1.6h-3.75v-1.6Z"/>
    <path class="cls-2" d="M27,26.71h-4.21c-.35,0-.64,.29-.64,.64s.29,.64,.64,.64h4.21c.35,0,.64-.29,.64-.64s-.29-.64-.64-.64Z"/>
  </g>
</svg>