<?xml version="1.0" encoding="UTF-8"?>
<svg id="Layer_1" data-name="Layer 1" xmlns="http://www.w3.org/2000/svg" xmlns:xlink="http://www.w3.org/1999/xlink" viewBox="0 0 50 50">
  <defs>
    <style>
      .cls-1 {
        fill: url(#linear-gradient);
      }

      .cls-2 {
        fill: #fff;
      }

      .cls-3 {
        fill: #ff592c;
      }

      .cls-4 {
        fill: #231f20;
      }
    </style>
    <linearGradient id="linear-gradient" x1="22.47" y1="35.33" x2="35.7" y2="23.81" gradientUnits="userSpaceOnUse">
      <stop offset="0" stop-color="#29272a"/>
      <stop offset=".32" stop-color="#706f71"/>
      <stop offset=".79" stop-color="#d6d5d6"/>
      <stop offset="1" stop-color="#fff"/>
    </linearGradient>
  </defs>
  <path class="cls-3" d="M18.44,25.13l-1.05,.03c.22-.24,.4-.42,.51-.51,.11-.11,.27-.28,.45-.49h.05l.41,.2c-.09,.36-.19,.55-.36,.76Z"/>
  <path class="cls-3" d="M19.39,27.94l.34,.24c-.42,.26-.78,.32-1.09,.11-.14-.08-.25-.19-.33-.32l1.08-.03Z"/>
  <path class="cls-3" d="M19.64,24.81l.54,.27-.65,.02c.03-.09,.07-.19,.1-.29Z"/>
  <path class="cls-3" d="M19.24,23.09h-.07c.48-.62,1.01-1.38,1.54-2.16t.02,.01c-.1,.27-.18,.54-.23,.8-.06,.29-.22,.41-.53,.65-.24,.16-.51,.37-.74,.7Z"/>
  <path class="cls-3" d="M18.61,26.29c.08-.07,.15-.15,.22-.22,.01-.01,.02-.02,.03-.03l3.01-.1,.43,.22c-.53,.2-.89,.42-1.3,.83l-1.34,.03-1.05-.72Z"/>
  <path class="cls-3" d="M23.46,22.36l-2.56,.44c.23-.2,.43-.48,.51-.89,.06-.31,.16-.61,.28-.89l1.77,1.35Z"/>
  <path class="cls-3" d="M23.08,26.84c.1-.03,.22-.08,.33-.12l.32,.17-.84,.02c.06-.02,.12-.05,.19-.07Z"/>
  <path class="cls-3" d="M22.34,18.81c-.1,.05-.19,.11-.28,.18,.33-.46,.62-.88,.86-1.18,.36-.49,.77-.89,1.15-1.23-.03,.08-.07,.16-.1,.24-.16,.09-.25,.25-.24,.43,0,.05,.01,.08,.03,.12-.03,.08-.06,.16-.08,.24-.14,.5-.54,.78-1.35,1.2Z"/>
  <path class="cls-3" d="M24.58,23.78c-.11,.09-.18,.23-.19,.36,0,.15,.07,.28,.18,.37,.08,.07,.25,.25,.23,.4,0,.01-.01,.01-.01,.02l-2.71,.09-2.18-1.11,4.56-.79,.54,.41c-.26,.15-.41,.24-.42,.25Z"/>
  <path class="cls-3" d="M24.49,18.01l1.81,1.58-3.97,.37c.14-.16,.28-.28,.43-.35,.78-.41,1.45-.83,1.73-1.61Z"/>
  <path class="cls-3" d="M25.93,23.09l-.23-.18,1.02-.17c-.14,.09-.32,.16-.55,.26l-.24,.09Z"/>
  <path class="cls-3" d="M25.55,24.27c.08-.05,.17-.08,.26-.12l.95,.71-1.05,.03c0-.24-.06-.45-.16-.62Z"/>
  <path class="cls-3" d="M26.94,16.57l-1.91,.14c.17-.37,.35-.75,.53-1.06l1.38,.93Z"/>
  <path class="cls-3" d="M27.08,21.74l-2.39,.41-1.73-1.31,4.3-.4,.17,.15c-.2,.31-.33,.68-.35,1.15Z"/>
  <path class="cls-3" d="M28.01,21.58c.02-.15,.06-.27,.12-.38l.35,.31-.48,.08Z"/>
  <path class="cls-3" d="M28.96,19.35l-1.39,.14-2.17-1.89,2.8-.2,1.82,1.21c-.07,.08-.14,.16-.24,.23-.31,.2-.57,.37-.81,.52Z"/>
  <polygon class="cls-3" points="30.3 17.69 29.69 17.28 30.3 17.24 30.3 17.69"/>
  <path class="cls-3" d="M30.73,19.19s.05-.05,.07-.08l.08,.07h-.15Z"/>
  <path class="cls-3" d="M28.92,8.64c.74-.38,2.18-.57,2.98-.66,.33-.05,.63-.08,.86-.12,.31-.05,.7-.08,1.14-.08,1.09,0,2.46,.16,3.42,.46,.1,.03,.18,.07,.26,.1-2.71,1.99-7.02,.85-8.66,.29Z"/>
  <path class="cls-3" d="M37.46,7.34c-.79-.24-1.87-.4-2.88-.45l.03-.18,2.84,.14v.5Z"/>
  <path class="cls-3" d="M28.44,16.45l-2.37-1.56c.43-.68,.96-2.03,1.78-4.26,.18-.48,.34-.91,.46-1.22,.88,.32,3.01,1,5.29,1,1.53,0,3.12-.31,4.44-1.25,.01,.15,.02,.29,.02,.49,.02,.34,.03,.74,.1,1.2,.24,1.64,.81,3.09,.89,3.28,.5,1.94,.62,3.91,.25,4.15-.05,.03-.26,.03-.75-.33l-.55-.41c-2.61-1.95-4.35-3.23-6.41-2.46-.78,.28-1.09,.74-1.21,1.22l-1.95,.14Z"/>
  <path class="cls-3" d="M6.12,37.48c.06-.15,.12-.31,.18-.45,.35-.96,3.76-4.05,4.88-5.06l.42-.38c.49-.44,1.74-1.88,3.08-3.4,.62-.7,1.27-1.45,1.83-2.08h.22l.61,.42c-.08,.19-.14,.37-.16,.57l-1.19,.05c-.25,0-.45,.22-.44,.48,.01,.25,.22,.44,.46,.44h.01l1.26-.05c.16,.43,.45,.79,.86,1.06,.25,.16,.57,.27,.93,.27,.42,0,.91-.16,1.47-.6l1.47,1.02c.08,.05,.17,.08,.26,.08,.15,0,.28-.07,.37-.2,.15-.2,.09-.49-.11-.63l-1.31-.92c.06-.07,.11-.12,.17-.19h.01s4.14-.15,4.14-.15c.07,0,.14-.02,.2-.06,.01-.01,.02-.02,.03-.03,.06-.03,.09-.08,.12-.14,.01-.01,.02-.01,.03-.02v-.02s.02-.06,.02-.09c.01-.02,.02-.06,.02-.09v-.02s-.01-.03-.01-.06c-.01-.03-.01-.07-.02-.09-.01-.02-.02-.05-.03-.07-.02-.03-.05-.06-.07-.09-.01-.01-.03-.02-.05-.03-.02-.02-.05-.03-.07-.06l-1.2-.61c.27-.12,.51-.27,.69-.43l2.85-.09c.07,0,.12-.02,.18-.05l.02-.02s.09-.06,.12-.1c.01,0,.01-.01,.02-.01,.01-.02,.01-.03,.02-.06s.03-.06,.05-.09c.01-.02,.01-.06,.01-.09,0-.01,.01-.03,.01-.06v-.02s-.01-.05-.02-.07c0-.05-.01-.08-.03-.12,0,0-.01,0-.01-.01-.02-.05-.07-.09-.11-.12l-1.56-1.19c.48-.2,.94-.5,1.13-1.2l1.68-.29s.03-.01,.06-.02c.03,0,.06-.01,.08-.02,.03-.02,.07-.05,.09-.07,.01-.01,.03-.02,.05-.03t.01-.02s.03-.05,.05-.08c.01-.02,.03-.05,.03-.08,.01-.02,.01-.05,.01-.08s.01-.07,0-.1h0s-.01-.06-.01-.07c-.01-.03-.02-.07-.05-.09-.01-.03-.03-.06-.06-.08-.01-.01-.01-.03-.03-.05l-1.02-.88c.14-.1,.29-.2,.48-.32l2.99-.27c.06-.01,.11-.02,.16-.06h.01c.07-.03,.11-.08,.16-.14,0-.01,.01-.01,.01-.01,.01-.02,.01-.05,.02-.06,.01-.03,.03-.06,.03-.09,.01-.03,.01-.07,.01-.1,0-.01,.01-.03,.01-.05s-.01-.02-.01-.02c0-.03-.01-.07-.02-.09-.01-.03-.02-.06-.03-.09-.01-.01-.02-.02-.03-.05-.03-.03-.06-.06-.09-.09t-.01-.01l-1.3-.86c.06-.33,.06-.66,.05-.94-.01-.77,0-1.12,.7-1.37,1.6-.59,3.08,.51,5.55,2.33l.55,.41c.74,.54,1.35,.67,1.8,.35,.62-.42,.68-1.58,.57-2.74,.58,1.62,.79,3.64,.83,4.56,0,.08,.02,.15,.06,.22,0,0,.25,.5,.43,1.96,.42,3.55-.85,4.74-4.57,7.23-3.06,2.03-3.7,3.27-4.6,4.99-.24,.45-.49,.94-.8,1.49-1.26,2.15-3.68,3.52-7.86,4.44-5.54,1.22-13.95-.11-16.49-1.21-1.95-.85-1.69-1.47-1.26-2.5Z"/>
  <path class="cls-1" d="M42.49,29.09c-.35,.66-2.66,1.66-4.18,2.33-1.29,.57-2.04,.89-2.37,1.19-1.4,1.23-2.91,3.57-3.23,4.68-1.15,4.15-8.98,6.54-9.06,6.57-4.24,1.25-15.42,1.95-17.94-1.54-.83-1.13-1.15-2.2-.97-3.17,.03-.19,.1-.37,.16-.54,.1,.69,.61,1.4,2.11,2.05,1.94,.84,6.86,1.79,11.64,1.79,1.89,0,3.77-.15,5.42-.52,2.99-.66,6.66-1.81,8.44-4.87,.33-.57,.59-1.08,.83-1.53,.89-1.72,1.43-2.76,4.29-4.66,2.22-1.48,3.66-2.6,4.41-4.03,.37,.7,.74,1.68,.44,2.26Z"/>
  <path class="cls-4" d="M42.47,25.74c.22-.84,.28-1.79,.14-2.97-.15-1.3-.38-1.94-.48-2.18-.03-.75-.31-5.31-2.24-7.03-.14-.35-.62-1.63-.81-3-.06-.42-.08-.79-.09-1.11-.03-.72-.06-1.36-.6-1.82v-1.39c0-.24-.19-.45-.44-.46l-3.65-.17c-.24-.01-.42,.14-.47,.35l-.18,.75c-.39,0-.75,.04-1.05,.09-.22,.04-.5,.07-.82,.11-1.99,.24-3.68,.53-4.14,1.56-.14,.32-.37,.95-.65,1.69-.47,1.28-1.46,3.95-1.84,4.3-.24,.14-1.78,1.07-2.97,2.63-.46,.6-1.13,1.56-1.84,2.59-1.13,1.64-2.55,3.68-3.06,4.12-.48,.41-1.85,1.97-3.3,3.62-1.26,1.44-2.57,2.92-3.01,3.33l-.42,.38c-2.33,2.11-4.52,4.18-5.04,5.26-.33,.24-1.39,1.11-1.66,2.58-.23,1.24,.15,2.55,1.13,3.9,1.63,2.24,5.8,2.93,9.9,2.93,3.72,0,7.38-.57,9.04-1.05,.08-.03,8.38-2.5,9.69-7.2,.24-.86,1.61-3.07,2.94-4.24,.24-.21,1.2-.63,2.12-1.03,2.42-1.06,4.17-1.87,4.63-2.75,.68-1.32-.44-3.19-.83-3.78Zm-5.01-19.06v.5c-.8-.24-1.87-.4-2.88-.45l.04-.18,2.84,.13Zm-5.57,1.14c.34-.04,.64-.08,.87-.12,.3-.05,.7-.08,1.15-.08,1.08,0,2.45,.15,3.41,.46,.1,.03,.18,.07,.26,.1-2.7,1.99-7.01,.84-8.66,.29,.74-.38,2.19-.56,2.98-.66Zm-4.03,2.65c.18-.48,.33-.9,.46-1.23,.88,.32,3.01,1,5.29,1,1.53,0,3.12-.31,4.43-1.24,.01,.14,.02,.29,.03,.48,.02,.35,.03,.75,.1,1.2,.23,1.64,.82,3.09,.9,3.29,.5,1.93,.61,3.9,.25,4.15-.05,.03-.27,.03-.75-.33l-.56-.41c-2.61-1.94-4.35-3.22-6.41-2.46-.77,.28-1.09,.74-1.21,1.22l-1.95,.14-2.36-1.56c.42-.68,.95-2.03,1.78-4.25Zm1.92,8.2c-.3,.2-.56,.37-.81,.52l-1.4,.13-2.17-1.89,2.79-.2,1.83,1.21c-.07,.08-.14,.16-.25,.23Zm1.02,.29l.09,.06h-.15s.04-.03,.06-.06Zm-11.41,8.83l.34,.23c-.41,.26-.78,.31-1.09,.12-.14-.09-.24-.2-.33-.32l1.08-.03Zm.27-.93l-1.05-.73c.07-.07,.15-.16,.21-.22,.01-.01,.02-.02,.04-.04l3.02-.1,.42,.22c-.53,.2-.89,.41-1.3,.82l-1.34,.04Zm7.28-10.46l-1.92,.14c.17-.37,.36-.75,.54-1.05l1.38,.92Zm-2.44,1.46l1.81,1.58-3.98,.37c.14-.15,.29-.27,.43-.35,.78-.4,1.44-.82,1.74-1.6Zm-3.09,3.89c.06-.31,.16-.61,.28-.89l1.77,1.35-2.56,.44c.22-.21,.43-.48,.51-.9Zm-1.24,3.17l-.65,.02c.04-.09,.07-.19,.11-.3l.54,.27Zm2.9,1.77c.1-.04,.22-.08,.33-.12l.32,.16-.85,.03c.06-.02,.12-.05,.19-.07Zm-1-1.83l-2.18-1.11,4.56-.78,.53,.41c-.26,.14-.4,.24-.42,.25-.11,.08-.18,.22-.18,.36,0,.14,.06,.28,.17,.37,.09,.07,.25,.26,.23,.4,0,0,0,.01,0,.02l-2.71,.09Zm3.62-.12c0-.24-.05-.46-.15-.63,.07-.04,.16-.08,.26-.13l.95,.72-1.06,.03Zm.23-1.81l-.23-.18,1.02-.18c-.14,.09-.32,.16-.56,.26l-.23,.1Zm-1.23-.94l-1.74-1.32,4.3-.4,.18,.15c-.21,.31-.34,.67-.35,1.15l-2.39,.41Zm3.44-.95l.35,.3-.47,.08c.02-.15,.06-.27,.12-.38Zm1.55-3.91l.61-.04s0,.07,0,.1c0,.13,0,.24,0,.35l-.61-.41Zm-6.77,.52c.37-.48,.77-.89,1.15-1.23-.04,.08-.07,.16-.1,.24-.15,.08-.25,.25-.24,.43,0,.04,.02,.08,.03,.12-.03,.08-.06,.17-.08,.24-.14,.5-.54,.79-1.35,1.2-.1,.05-.19,.11-.28,.18,.33-.47,.62-.88,.85-1.18Zm-2.2,3.12s.01,0,.02,.01c-.1,.27-.17,.54-.22,.8-.06,.29-.21,.42-.54,.64-.23,.16-.51,.38-.73,.71h-.07c.47-.63,1-1.39,1.54-2.16Zm-2.82,3.73c.12-.1,.28-.28,.45-.49,.01,0,.03,0,.04,0h0s.41,.21,.41,.21c-.09,.36-.19,.56-.36,.76l-1.06,.03c.22-.24,.4-.42,.51-.51Zm-6.71,7.32l.42-.38c.48-.44,1.75-1.88,3.08-3.4,.62-.7,1.27-1.45,1.84-2.08h.21s.62,.42,.62,.42c-.08,.18-.14,.37-.16,.57l-1.19,.04c-.25,0-.45,.22-.44,.47,0,.25,.21,.44,.46,.44h.01l1.26-.04c.15,.43,.45,.79,.86,1.06,.25,.16,.56,.28,.92,.28,.42,0,.91-.17,1.47-.61l1.47,1.02c.08,.05,.17,.08,.26,.08,.14,0,.29-.07,.38-.2,.14-.21,.09-.49-.12-.64l-1.32-.91c.06-.07,.12-.13,.18-.2,0,0,0,0,.01-.01l4.14-.13c.07,0,.14-.03,.2-.06,.02,0,.03-.02,.04-.03,.05-.04,.09-.08,.12-.13,0-.01,.02-.02,.03-.03,0,0,0-.02,0-.02,.01-.03,.02-.06,.02-.09,0-.03,.02-.06,.02-.09,0,0,0-.01,0-.02,0-.02-.01-.04-.01-.06,0-.03-.01-.07-.02-.1,0-.02-.02-.04-.03-.06-.02-.03-.04-.06-.06-.09-.01-.01-.03-.03-.05-.04-.02-.02-.04-.04-.07-.05l-1.2-.61c.28-.13,.52-.27,.7-.43l2.85-.09c.07,0,.13-.02,.18-.04,.01,0,.02-.01,.03-.02,.05-.03,.09-.06,.12-.1,0,0,.01,0,.02-.01,.01-.02,.02-.04,.03-.05,.02-.03,.03-.05,.04-.09,0-.03,.01-.06,.02-.09,0-.02,.01-.04,.01-.06,0,0,0-.02,0-.03,0-.02,0-.04-.01-.07,0-.04-.02-.08-.04-.12,0,0,0,0,0-.01-.03-.05-.07-.09-.11-.13,0,0,0,0,0,0l-1.56-1.19c.48-.21,.94-.5,1.13-1.2l1.68-.29s.04-.02,.06-.02c.03,0,.05-.02,.08-.03,.03-.02,.06-.04,.09-.06,.01-.01,.03-.02,.04-.03,0,0,0-.01,.01-.02,.02-.02,.03-.05,.04-.08,.01-.03,.03-.05,.04-.08,0-.02,0-.05,0-.07,0-.03,0-.07,0-.1,0,0,0-.01,0-.02,0-.02-.01-.03-.02-.05,0-.03-.02-.06-.04-.09-.02-.03-.04-.05-.06-.07-.01-.02-.02-.03-.04-.05l-1.02-.89c.14-.09,.29-.2,.47-.31l2.99-.28c.06,0,.11-.02,.16-.05,0,0,0,0,.01,0,.06-.03,.11-.08,.15-.14,0,0,.01,0,.02-.01,.01-.02,.01-.04,.02-.06,.01-.03,.03-.06,.04-.09,0-.03,0-.07,.01-.1,0-.02,0-.04,0-.05,0,0,0-.01,0-.02,0-.03-.02-.06-.03-.09-.01-.03-.02-.06-.03-.08,0-.02-.02-.03-.03-.04-.03-.03-.06-.07-.09-.09,0,0,0,0,0,0l-1.3-.87c.06-.33,.06-.66,.05-.94-.02-.77,0-1.12,.69-1.37,1.6-.59,3.09,.51,5.55,2.33l.56,.41c.74,.54,1.35,.66,1.81,.35,.62-.42,.68-1.59,.57-2.74,.58,1.62,.79,3.64,.82,4.56,0,.07,.02,.14,.06,.21,0,0,.26,.5,.43,1.96,.42,3.56-.85,4.74-4.58,7.23-3.05,2.03-3.7,3.28-4.59,5-.23,.45-.49,.94-.81,1.49-1.25,2.15-3.67,3.52-7.85,4.44-5.53,1.22-13.94-.11-16.5-1.22-1.95-.84-1.69-1.47-1.26-2.5,.06-.15,.13-.3,.18-.45,.35-.97,3.76-4.04,4.88-5.06Zm31.31-2.71c-.34,.66-2.65,1.67-4.18,2.34-1.29,.56-2.03,.9-2.36,1.19-1.41,1.23-2.91,3.57-3.22,4.68-1.16,4.15-8.98,6.54-9.06,6.56-4.24,1.24-15.41,1.94-17.94-1.54-.82-1.13-1.15-2.2-.97-3.18,.04-.19,.09-.37,.16-.54,.09,.69,.61,1.4,2.1,2.04,1.94,.84,6.87,1.79,11.64,1.78,1.9,0,3.77-.15,5.42-.51,3-.66,6.66-1.81,8.45-4.87,.33-.57,.59-1.07,.83-1.53,.89-1.72,1.43-2.76,4.28-4.66,2.23-1.48,3.66-2.61,4.42-4.03,.37,.71,.74,1.68,.44,2.27Z"/>
  <g>
    <polygon class="cls-2" points="34.93 24.03 29.23 27.26 33.21 30 33.21 27.26 34.93 24.03"/>
    <path d="M34.93,24.03l-1.71,3.23v2.73l-3.98-2.73,5.69-3.23m0-.62c-.11,0-.21,.03-.31,.08l-5.69,3.23c-.19,.11-.31,.3-.31,.51,0,.21,.09,.42,.27,.54l3.98,2.73c.11,.07,.23,.11,.35,.11,.1,0,.2-.02,.29-.07,.2-.11,.33-.32,.33-.55v-2.58l1.64-3.1c.13-.24,.08-.55-.12-.74-.12-.12-.28-.18-.43-.18h0Z"/>
  </g>
</svg>