<?xml version="1.0" encoding="UTF-8"?>
<svg id="Layer_1" data-name="Layer 1" xmlns="http://www.w3.org/2000/svg" viewBox="0 0 50 50">
  <defs>
    <style>
      .cls-1 {
        fill: #f2f2f7;
      }

      .cls-2 {
        fill: #999;
      }

      .cls-3 {
        fill: #d1d1d6;
      }

      .cls-4 {
        fill: #231f20;
      }

      .cls-5 {
        fill: #383634;
      }
    </style>
  </defs>
  <g>
    <path class="cls-5" d="M35.02,26.12l1.02,.79-3.36,.82,1.67-4.66,.5,2.78c.02,.11,.07,.2,.16,.27Z"/>
    <path class="cls-1" d="M41.89,17.99c-.82-2.55-1.55-3.4-1.95-3.67,.78,1.46,1.7,4.42,.38,6.3-1.18,1.7-3.03,.51-4.25-.27-.51-.33-1.03-.66-1.35-.71-1.06-.18-1.58,.33-2.41,1.24-.78,.86-6.28,5.93-8.17,6.67-1.25,.48-3.17-.06-4.43-.68-.59-.29-2.01-1.08-2.3-2.1-.01-.04-.02-.09-.02-.13-1.3,1.09-3.29,2.67-4.3,3.06-1.3,.51-4.84,3.05-5.9,4.62,.21-.1,.44-.16,.71-.15,1.41,.05,3.45,1,3.63,2.67l.02,.27c.03,.28,.05,.58,.11,.9,6.67,1.49,14.83,.07,16.1-.35,2.57-.87,3.86-3.29,4.12-4.06,.42-1.33,1.89-1.61,3.06-1.83,.25-.05,.48-.1,.69-.15,.86-.21,1.93-1.92,2.45-2.74l.18-.3c.64-1.66,1.57-3.65,2.35-3.8,.17-.04,.33,0,.47,.09,.09-.3,.11-.87-.02-1.07-.36-.58,.23-2.35,.83-3.79Zm-4.76,9.54l-5.02,1.24s-.06,.01-.11,.01c-.12,0-.23-.05-.32-.14-.11-.12-.14-.29-.09-.44l2.5-6.96c.06-.18,.22-.3,.45-.28,.19,.01,.35,.16,.38,.35l.76,4.21,1.61,1.24c.13,.1,.19,.27,.16,.43-.03,.17-.16,.3-.32,.33Z"/>
    <path class="cls-2" d="M10.69,35.19c.09,.83,.2,2.06,.94,3.14-.79-.3-1.43-.58-1.82-.77-1.78-.89-2.79-1.9-3.04-3.03h.03s.15-1.5,1.08-1.49c1.09,.04,2.68,.78,2.79,1.9l.02,.26Z"/>
    <path class="cls-2" d="M18.52,24.97c-.14-.16-.25-.31-.28-.45-.04-.17,.13-.54,.46-1.06l.92,.37c-.47,.49-.85,.87-1.1,1.13Z"/>
    <path class="cls-2" d="M20.26,23.17l-1.03-.43c.31-.41,.69-.87,1.13-1.38l1.12,.45c-.42,.48-.83,.94-1.22,1.35Z"/>
    <path class="cls-3" d="M20.48,24.19l2.36,.95c-.6,.68-1.09,1.22-1.33,1.49-.46-.14-.94-.31-1.41-.54-.35-.17-.65-.36-.93-.55,.3-.3,.76-.77,1.31-1.34Z"/>
    <path class="cls-2" d="M22.07,21.12l-1.11-.44c.46-.51,.96-1.05,1.5-1.6l.91,.41-.11,.15c-.37,.49-.78,.99-1.19,1.48Z"/>
    <path class="cls-3" d="M22.33,22.14l2.29,.9c-.41,.49-.8,.97-1.18,1.41l-2.33-.94c.39-.43,.8-.89,1.22-1.37Z"/>
    <path class="cls-2" d="M23.92,18.78l-.81-.36c.44-.43,.89-.87,1.35-1.31l.52,.25c-.34,.46-.69,.94-1.07,1.43Z"/>
    <path class="cls-3" d="M24.19,19.85l2.14,.95c-.34,.49-.74,1.01-1.14,1.54l-2.26-.89c.35-.43,.7-.86,1.03-1.29l.22-.31Z"/>
    <path class="cls-2" d="M25.51,16.64l-.54-.26c1.16-2.35,2.01-3.62,2.88-4.31-.06,.29-.12,.54-.17,.75-.27,1.02-1.09,2.33-2.17,3.82Z"/>
    <path class="cls-3" d="M26.83,20.07l-2.1-.93c.36-.49,.73-.96,1.07-1.42l2.04,.94c-.35,.47-.69,.94-1,1.41Z"/>
    <path class="cls-3" d="M26.31,17.01c1.09-1.51,1.92-2.86,2.2-3.97,.07-.27,.15-.61,.23-.98,.33-1.49,1.13-4.99,2.18-4.75,.89,.2,1.49,.85,1.85,1.38-.07,.05-.16,.1-.25,.18-.96,.9-1.25,2.85-1.11,4.4,.09,.85-1.22,2.45-2.46,4-.18,.23-.36,.47-.55,.7l-2.08-.96Z"/>
    <path class="cls-2" d="M32.42,10.9c.15-.62,.38-1.11,.69-1.4,.02-.02,.04-.04,.05-.05,.03,.21,.02,.71-.23,1.73-.16-.13-.31-.25-.48-.34l-.03,.06Z"/>
    <path class="cls-5" d="M34.85,14.95c-.04-.29-.09-.59-.15-.9l.07,.03c.03-.07,.86-1.83,2.82-1.32,.41,.11,.71,.35,.95,.78,.77,1.37,.47,4.06,.13,5.21-.05,.17-.14,.25-.31,.27-.83,.1-2.39-1.05-2.99-2.12-.32-.59-.42-1.25-.52-1.94Z"/>
    <path class="cls-2" d="M37.33,9.9l1.75,.42c.1,.67,.21,1.82,.14,2.7-.34-.57-.81-.93-1.4-1.09-.16-.04-.3-.05-.45-.07,.02-.57,.03-1.34-.04-1.95Z"/>
    <path class="cls-3" d="M32.87,12.26c.84,.84,.98,1.8,1.13,2.82,.11,.74,.22,1.5,.62,2.23,.67,1.22,2.41,2.57,3.66,2.57h.18c.52-.06,.9-.37,1.05-.89,.16-.53,.32-1.44,.37-2.42,.31,1.23,.38,2.62-.27,3.56s-1.64,.41-3.06-.5c-.64-.41-1.18-.76-1.69-.84-1.57-.27-2.39,.64-3.19,1.51-.87,.96-6.22,5.8-7.85,6.43-.32,.13-.79,.15-1.32,.09,.31-.33,.71-.79,1.19-1.33l.64,.26c.05,.02,.11,.03,.16,.03,.17,0,.34-.11,.41-.28,.09-.21-.02-.47-.23-.55l-.37-.15c.38-.46,.78-.93,1.17-1.43l.98,.38c.05,.02,.11,.03,.16,.03,.17,0,.33-.11,.39-.28,.09-.22-.02-.47-.25-.55l-.73-.29c.39-.51,.77-1.02,1.1-1.51l1.77,.79c.05,.02,.12,.03,.17,.03,.17,0,.33-.1,.41-.26,.1-.21-.01-.47-.22-.57l-1.62-.73c.31-.46,.65-.92,1.01-1.39l2.1,.98c.05,.02,.12,.03,.18,.03,.16,0,.31-.09,.38-.25,.11-.21,.01-.48-.2-.58l-1.92-.89c.15-.18,.29-.35,.43-.53,1.48-1.83,2.76-3.41,2.66-4.63-.04-.49-.04-.96,.01-1.42,.19,.15,.39,.31,.59,.5Z"/>
    <path class="cls-3" d="M41.81,21.35c-.05-.21,.14-1,.47-1.94,.33,1.74,.14,3.54,.14,3.56-.05,.49-.19,1.11-.39,1.62-.2,.5-.47,.9-.78,.93-.25,.02-.48,.03-.69,.04-.34,.02-.67,.04-.97,.11,.44-.97,.87-1.76,1.13-2.01,.32,.25,.65,.18,.84,.03,.53-.42,.61-1.81,.26-2.35Z"/>
    <path class="cls-2" d="M42.99,24.45c.11,.5,.12,.98,.12,1.3,0,.18,0,.3,.02,.41-.31,1.78-1.05,1.7-1.91,1.58-1.48-.2-1.8,.37-3.07,2.5l-.16,.25c-.98,1.65-1.1,1.63-2.2,1.37-1.63-.38-4.33,2.69-5.11,3.65-.78,.95-3.11,2.52-10.06,2.52h-.13c-2.35,0-4.18-.28-5.56-.62,5.9,.55,11.84-.5,13.1-.93,2.92-.98,4.35-3.67,4.66-4.62,.27-.83,1.4-1.06,2.4-1.25,.27-.04,.51-.1,.75-.15,1.19-.31,2.3-2.07,2.97-3.13l.21-.32c.29-.47,.69-.51,1.58-.57,.22-.01,.47-.02,.73-.05,.9-.09,1.4-1.06,1.66-1.93Z"/>
    <path class="cls-3" d="M43.47,30.05c-.12,.98-3.87,2.33-6.11,3.13-1.46,.53-2.73,.98-3.32,1.37-.73,.48-.95,1.08-1.18,1.72-.36,.97-.77,2.07-3.21,3.37-4.31,2.31-11.07,.97-15.6-.45-1.09-.46-1.69-1.15-2.02-1.9,1.3,.64,3.98,1.58,8.46,1.59h.13c6.93,0,9.66-1.54,10.72-2.83,1.72-2.09,3.53-3.54,4.29-3.35,1.45,.34,1.91,.22,3.1-1.77l.15-.26c1.26-2.1,1.42-2.18,2.23-2.07,.63,.09,1.66,.21,2.34-.81,.07,.65,.12,1.45,.02,2.26Z"/>
  </g>
  <g>
    <path class="cls-4" d="M43.98,26.04c-.01-.06,0-.16,0-.29,0-.64,0-1.82-.68-2.85,.05-.6,.17-2.68-.36-4.48-.87-2.96-1.84-4.63-2.89-4.99,.2-1.36-.1-3.29-.15-3.54-.03-.17-.16-.31-.33-.35l-2.7-.63c-.17-.04-.33,.03-.43,.17-.1,.13-.11,.33-.04,.47,.11,.22,.15,1.3,.12,2.3-.94,.13-1.65,.67-2.09,1.22-.17-.41-.42-.81-.77-1.21,.54-1.95,.44-2.72,.2-3.06-.29-.56-1.15-1.97-2.74-2.32-1.66-.36-2.46,2.21-2.99,4.42-1.4,.68-2.46,2.09-4.1,5.44-1.6,1.51-4.64,4.5-5.98,6.6-1.08,.96-4.1,3.51-5.27,3.96-1.59,.62-5.82,3.66-6.6,5.46-.58,1.35-.94,3.91,3.25,5.98,.83,.41,2.5,1.1,4.6,1.76,.21,.07,.43,.14,.67,.2,2.66,.78,5.9,1.46,9,1.46,2.3,0,4.52-.38,6.36-1.36,2.73-1.46,3.24-2.84,3.61-3.84,.21-.56,.36-.97,.84-1.29,.5-.33,1.78-.79,3.14-1.28,3.8-1.37,6.51-2.44,6.68-3.85,.22-1.91-.21-3.85-.35-4.1Zm-2.17-4.69c-.06-.21,.14-1,.47-1.94,.33,1.73,.14,3.54,.14,3.56,0,0,0,0,0,0h0c-.11,.99-.55,2.49-1.18,2.55-.25,.03-.48,.04-.69,.05-.34,.02-.67,.04-.97,.1,.44-.97,.88-1.76,1.13-2.01,.32,.25,.65,.18,.84,.03,.53-.41,.6-1.81,.26-2.35Zm-3,5.97l.21-.33c.3-.46,.7-.5,1.59-.56,.22-.01,.46-.03,.72-.05,.9-.09,1.4-1.06,1.67-1.93,.11,.5,.12,.98,.12,1.3,0,.18,0,.3,.02,.41-.31,1.78-1.05,1.69-1.9,1.58-1.49-.2-1.81,.37-3.08,2.49l-.15,.25c-.99,1.65-1.1,1.63-2.21,1.36-1.63-.39-4.32,2.69-5.11,3.65-.78,.94-3.11,2.52-10.05,2.52h-.13c-2.35,0-4.19-.28-5.57-.63,5.91,.56,11.84-.5,13.1-.92,2.93-.99,4.36-3.67,4.66-4.62,.27-.84,1.41-1.06,2.41-1.25,.26-.05,.51-.1,.74-.16,1.2-.3,2.31-2.07,2.97-3.12Zm.27-17.01c.1,.67,.21,1.83,.14,2.7-.35-.56-.82-.93-1.41-1.08-.15-.04-.3-.06-.44-.08,.02-.57,.03-1.34-.04-1.95l1.75,.41Zm-4.3,3.78c.03-.08,.86-1.84,2.81-1.33,.4,.11,.71,.36,.95,.78,.77,1.37,.47,4.07,.13,5.21-.05,.18-.14,.25-.31,.27-.83,.09-2.39-1.05-2.99-2.12-.32-.59-.42-1.24-.52-1.94-.04-.29-.09-.59-.15-.9l.08,.03Zm-.16,3.22c.67,1.22,2.41,2.58,3.66,2.58,.06,0,.12,0,.17,0,.52-.06,.9-.37,1.05-.88,.16-.53,.32-1.44,.37-2.42,.31,1.23,.39,2.63-.26,3.56-.66,.94-1.64,.41-3.06-.5-.63-.41-1.18-.76-1.68-.84-1.57-.26-2.4,.64-3.19,1.51-.88,.96-6.22,5.8-7.85,6.44-.33,.13-.8,.15-1.33,.09,.31-.34,.72-.8,1.2-1.34l.64,.26c.05,.02,.11,.03,.16,.03,.17,0,.33-.1,.4-.27,.09-.22-.02-.47-.24-.56l-.37-.15c.38-.45,.78-.93,1.18-1.42l.98,.38c.05,.02,.11,.03,.16,.03,.17,0,.34-.1,.4-.28,.09-.22-.02-.47-.25-.56l-.73-.29c.39-.51,.77-1.02,1.11-1.51l1.77,.78c.06,.03,.12,.04,.18,.04,.17,0,.32-.1,.4-.26,.1-.22,0-.47-.22-.57l-1.62-.72c.31-.46,.65-.92,1.01-1.38l2.1,.97c.06,.03,.12,.04,.18,.04,.16,0,.32-.09,.39-.25,.1-.22,0-.47-.21-.57l-1.91-.88c.14-.18,.28-.35,.43-.53,1.48-1.84,2.76-3.42,2.65-4.63-.04-.49-.04-.97,0-1.42,.2,.15,.4,.31,.59,.5,.85,.85,.99,1.8,1.13,2.82,.11,.74,.22,1.51,.62,2.23Zm-14.26,4.06l1.12,.44c-.42,.48-.84,.94-1.22,1.35l-1.03-.42c.31-.41,.7-.88,1.13-1.38Zm2.11-2.29l.91,.41-.11,.14c-.38,.5-.78,1-1.19,1.48l-1.11-.44c.46-.51,.96-1.05,1.5-1.6Zm2.26,.06c.37-.48,.73-.96,1.06-1.42l2.04,.95c-.36,.46-.69,.93-1.01,1.4l-2.1-.93Zm1.6,1.66c-.35,.5-.74,1.02-1.14,1.54l-2.26-.89c.35-.43,.7-.86,1.03-1.29l.23-.31,2.14,.95Zm-4,1.35l2.29,.9c-.4,.49-.8,.97-1.18,1.41l-2.33-.94c.39-.42,.8-.88,1.22-1.37Zm.51,3c-.6,.68-1.09,1.22-1.33,1.49-.46-.13-.94-.31-1.41-.54-.35-.17-.66-.36-.93-.56,.3-.3,.76-.76,1.31-1.35l2.36,.96Zm10.33-15.7c.02,.22,.01,.72-.24,1.73-.16-.12-.32-.24-.48-.34l-.04,.06c.15-.61,.39-1.11,.69-1.4,.02-.02,.04-.04,.06-.06Zm-2.25-2.13c.88,.2,1.49,.85,1.85,1.37-.08,.05-.16,.1-.25,.18-.96,.9-1.25,2.86-1.11,4.4,.08,.86-1.21,2.46-2.46,4.01-.19,.23-.37,.47-.56,.7l-2.08-.96c1.09-1.52,1.92-2.86,2.2-3.97,.07-.27,.14-.6,.23-.98,.33-1.49,1.14-4.99,2.18-4.75Zm-3.07,4.76c-.06,.28-.12,.54-.18,.75-.26,1.02-1.08,2.32-2.16,3.82l-.55-.26c1.17-2.35,2.01-3.62,2.89-4.31Zm-3.39,5.03l.53,.25c-.34,.46-.7,.94-1.07,1.43l-.8-.36c.43-.43,.88-.87,1.35-1.32Zm-5.75,6.36l.91,.37c-.47,.49-.85,.88-1.1,1.13-.13-.15-.24-.3-.28-.44-.04-.18,.13-.55,.46-1.06Zm-5.61,4.24c1.01-.39,3-1.98,4.3-3.06,0,.05,.01,.09,.03,.13,.3,1.02,1.71,1.81,2.31,2.1,1.26,.62,3.17,1.17,4.42,.68,1.88-.74,7.39-5.8,8.17-6.66,.83-.91,1.35-1.42,2.41-1.24,.32,.05,.85,.39,1.35,.72,1.22,.78,3.06,1.96,4.24,.27,1.31-1.89,.39-4.84-.38-6.3,.4,.26,1.12,1.11,1.95,3.67-.6,1.44-1.2,3.2-.83,3.78,.12,.19,.11,.76,.02,1.07-.14-.09-.31-.13-.48-.09-.78,.15-1.7,2.14-2.34,3.8l-.19,.3c-.51,.82-1.59,2.53-2.45,2.74-.21,.05-.45,.1-.69,.15-1.18,.23-2.64,.51-3.07,1.83-.25,.78-1.54,3.2-4.11,4.06-1.27,.43-9.43,1.85-16.09,.35-.05-.31-.08-.62-.11-.89l-.03-.26c-.18-1.66-2.22-2.62-3.63-2.67-.27,0-.5,.05-.71,.15,1.06-1.57,4.59-4.1,5.9-4.61Zm-6.32,6.82h.03s.14-1.5,1.07-1.49c1.09,.04,2.68,.78,2.8,1.9l.03,.25c.08,.83,.2,2.07,.93,3.14-.79-.3-1.43-.58-1.82-.77-1.79-.88-2.79-1.9-3.04-3.03Zm36.7-4.48c-.12,.98-3.87,2.33-6.11,3.13-1.47,.53-2.73,.98-3.32,1.37-.72,.47-.95,1.07-1.18,1.71-.36,.97-.77,2.07-3.21,3.38-4.31,2.31-11.07,.97-15.6-.46-1.09-.46-1.68-1.15-2.02-1.89,1.31,.64,3.98,1.58,8.46,1.59h.13c6.93,0,9.66-1.54,10.72-2.84,1.71-2.08,3.52-3.54,4.28-3.35,1.45,.34,1.91,.23,3.11-1.77l.15-.26c1.26-2.1,1.42-2.18,2.22-2.08,.63,.08,1.67,.22,2.34-.81,.07,.65,.11,1.45,.02,2.26Z"/>
    <path class="cls-4" d="M32.01,28.77s.07,0,.1-.01l5.03-1.23c.16-.04,.29-.17,.32-.33,.03-.16-.03-.33-.16-.43l-1.61-1.23-.75-4.22c-.03-.19-.19-.34-.39-.35-.22-.02-.38,.1-.44,.28l-2.5,6.95c-.05,.15-.02,.32,.09,.44,.08,.09,.2,.14,.32,.14Zm2.35-5.71l.5,2.79c.02,.11,.08,.2,.16,.27l1.03,.78-3.36,.83,1.68-4.67Z"/>
  </g>
</svg>