<?xml version="1.0" encoding="UTF-8"?>
<svg id="Layer_1" data-name="Layer 1" xmlns="http://www.w3.org/2000/svg" viewBox="0 0 50 50">
  <defs>
    <style>
      .cls-1 {
        fill: #f5e7d8;
      }

      .cls-2 {
        fill: #ffba7b;
      }

      .cls-3 {
        fill: #231f20;
      }

      .cls-4 {
        fill: #575757;
      }
    </style>
  </defs>
  <g>
    <path class="cls-2" d="M10.25,31.5c-.06-.2-.1-.62,.17-1.39,.47-.55,1-.85,1.64-.89,.47-.03,.99,.08,1.55,.32l-3.35,1.96Z"/>
    <path class="cls-1" d="M5.85,34.86c0-.1,.05-.15,.06-.16,1.59-1.09,4.34-2.45,4.37-2.46t0-.02h.02l3.98-2.32c.53,.32,1.09,.74,1.67,1.27,1.28,1.17,2.32,2.66,2.97,3.68-1.07,.49-4.45,1.99-6.26,2.49-2.47,.69-5.13-.96-6.15-1.69-.59-.42-.67-.7-.67-.8Z"/>
    <path class="cls-4" d="M19.28,35.43c.08,.14,.15,.26,.2,.36-1.33,.62-2.4,1.09-2.93,1.34-2.57,1.14-4.57,1.9-7.11,1.26-2.15-.55-4.21-1.78-4.41-2.65-.03-.13-.04-.31,.19-.51,0,0,.02-.02,.03-.03,.12,.33,.42,.67,.88,1,.91,.66,3.04,1.98,5.3,1.98,.47,0,.94-.06,1.41-.19,1.92-.53,5.43-2.11,6.44-2.56Z"/>
    <path class="cls-2" d="M17.69,21.09c-.39-.14-.7-.3-.91-.45,.22,.02,.55,.07,1.04,.19,.61,.13,1.28,.28,1.98,.42,2.52,.53,5.37,1.13,6.49,1.8-.77,.96-1.55,1.85-1.88,1.95-2.02-1.36-5.53-3.48-6.72-3.91Z"/>
    <path class="cls-1" d="M27.8,31.46c-.41,.34-.83,.65-1.26,.87-2.13,1.11-4.51,2.26-6.46,3.17-.44-.79-1.8-3.08-3.68-4.8-.66-.62-1.3-1.09-1.91-1.44,0,0-.02,0-.03,0-.88-.5-1.7-.74-2.45-.69-.36,.02-.7,.13-1.02,.28,.07-.14,.15-.28,.23-.43,1.47-2.56,4.12-6.23,4.97-7.39,.44,.37,1.15,.64,1.27,.69,1.26,.45,5.47,3.02,7.19,4.26,1.62,1.15,3.1,5.35,3.15,5.49Z"/>
    <path class="cls-2" d="M28.11,21.78c.28-.37,.55-.72,.79-1.01,1.65-2.1,8.02-8.65,10.55-9.07,2.35-.39,4.23,.14,4.63,.45-.58,.69-4.21,3.55-6.78,5.41-4.43,3.21-5.96,5.75-6.96,8.02-.62,1.41-2.04,3.06-2.69,3.78-.62-1.39-1.57-3.17-2.62-3.91-.02-.02-.03-.02-.05-.03,.64-.48,1.59-1.62,3.12-3.63Z"/>
    <path class="cls-4" d="M44.22,20.94c.04,.51-.03,.9-.22,1.16-.38,.56-1.32,.7-2.61,.92h-.1c-.64,.11-1.15,.03-1.51-.24-.22-.16-.36-.37-.45-.56,.13,.02,.27,.02,.4,.02,1.49,0,3.4-.55,4.48-1.3Z"/>
    <path class="cls-1" d="M38.94,21.5c-1.08-.24-1.22-1-1.24-1.31,.17-.14,.34-.28,.5-.4,.67-.56,1.29-1.06,1.72-1.46,.65-.58,1.6-1.31,2.53-2.02,.34-.26,.65-.5,.93-.72,2.37,2.62,1.64,3.52,.82,4.52-.77,.94-3.77,1.74-5.26,1.4Z"/>
    <path class="cls-1" d="M37.79,19.28c-1.87,1.53-3.98,3.26-4.59,4.39l-.23,.46c-.75,1.44-2.49,4.76-4.63,6.86-.09-.23-.22-.57-.39-.97,.53-.56,2.27-2.49,3-4.18,.65-1.47,1.85-4.2,6.74-7.75,.77-.57,5.42-4.02,6.73-5.37,.18,.29,.32,.67,.21,.9-.15,.3-1.5,1.34-2.57,2.17-.93,.71-1.89,1.46-2.57,2.06-.44,.39-1.04,.88-1.7,1.43Z"/>
  </g>
  <path class="cls-3" d="M43.9,15.09c.73-.59,1.18-1,1.32-1.27,.34-.69-.21-1.54-.44-1.84-.01-.09-.05-.19-.14-.3-.5-.58-2.76-1.14-5.3-.72-3.03,.5-9.8,7.84-10.95,9.3-.24,.3-.51,.65-.79,1.02-.25,.33-.57,.74-.9,1.16-.02-.01-.03-.03-.05-.04-1.2-.73-4.13-1.34-6.71-1.89-.7-.15-1.37-.29-1.97-.42-1.4-.32-1.97-.27-2.1,.16,0,0,0,0,0,.01-.5,.68-3.57,4.88-5.21,7.73-.39,.68-.65,1.24-.82,1.72,0,.02-.02,.04-.02,.06-.35,1.01-.3,1.61-.16,1.95-.81,.41-2.8,1.44-4.11,2.34,0,0-.02,0-.03,.01,0,0-.02,.02-.02,.02-.27,.19-.52,.37-.71,.53-.46,.41-.47,.85-.4,1.16,.3,1.25,2.72,2.58,4.89,3.13,.69,.18,1.35,.25,1.98,.25,1.89,0,3.61-.68,5.55-1.55,1.37-.61,6.14-2.76,10.03-4.8,3.13-1.64,5.63-6.44,6.7-8.49l.24-.45c.43-.81,1.89-2.1,3.34-3.3,.15,.53,.56,1.13,1.46,1.4,.08,.29,.28,.83,.79,1.22,.38,.29,.86,.43,1.42,.43,.19,0,.4-.02,.61-.05l.09-.02c1.4-.23,2.5-.41,3.05-1.19,.34-.48,.41-1.15,.26-2.06,.99-1.22,1.56-2.49-.9-5.23Zm-15.78,6.6c.28-.37,.55-.72,.79-1.02,1.65-2.1,8.02-8.65,10.54-9.06,2.35-.39,4.23,.14,4.64,.44-.59,.68-4.21,3.55-6.78,5.41-4.43,3.21-5.96,5.75-6.96,8.02-.62,1.41-2.04,3.06-2.68,3.78-.63-1.4-1.57-3.17-2.62-3.92-.01,0-.03-.02-.04-.03,.64-.48,1.58-1.62,3.12-3.62Zm-10.29-.95c.6,.14,1.28,.28,1.98,.43,2.52,.53,5.37,1.13,6.49,1.8-.77,.96-1.55,1.85-1.88,1.95-2.01-1.36-5.53-3.48-6.72-3.91-.38-.14-.7-.31-.91-.45,.22,.02,.54,.07,1.04,.18Zm-5.77,8.39c.47-.03,.99,.08,1.55,.33l-3.35,1.96c-.06-.2-.1-.62,.17-1.39,.47-.56,1.01-.85,1.64-.9Zm-1.76,3.02s0,0,0,0c0,0,0,0,.01,0l3.98-2.32c.53,.32,1.09,.74,1.67,1.28,1.28,1.17,2.33,2.66,2.97,3.68-1.07,.48-4.46,1.99-6.26,2.49-2.47,.69-5.12-.95-6.14-1.69-.59-.42-.67-.7-.67-.8,0-.1,.05-.15,.06-.17,1.59-1.09,4.34-2.45,4.38-2.46Zm6.26,4.89c-2.57,1.15-4.58,1.91-7.11,1.26-2.14-.55-4.21-1.78-4.42-2.65-.03-.13-.04-.31,.19-.51,.01-.01,.03-.02,.04-.03,.12,.33,.42,.67,.88,1.01,.91,.66,3.03,1.98,5.29,1.98,.47,0,.94-.06,1.41-.19,1.92-.53,5.43-2.1,6.43-2.56,.08,.14,.15,.26,.21,.35-1.33,.62-2.4,1.1-2.93,1.34Zm9.99-4.79c-2.13,1.11-4.51,2.26-6.46,3.17-.44-.78-1.8-3.08-3.68-4.81-.66-.61-1.3-1.08-1.91-1.43,0,0-.02,0-.03-.02-.88-.5-1.7-.74-2.45-.69-.36,.03-.7,.13-1.02,.28,.07-.14,.15-.28,.24-.43,1.47-2.55,4.12-6.22,4.97-7.39,.44,.37,1.15,.64,1.27,.69,1.26,.45,5.46,3.02,7.19,4.26,1.61,1.16,3.1,5.36,3.14,5.49-.41,.35-.83,.65-1.26,.88Zm6.66-8.67l-.24,.46c-.75,1.44-2.48,4.76-4.63,6.85-.08-.22-.21-.56-.38-.97,.52-.56,2.26-2.49,3-4.18,.65-1.47,1.85-4.2,6.74-7.75,.78-.56,5.42-4.02,6.73-5.37,.17,.3,.32,.67,.21,.9-.15,.3-1.5,1.34-2.58,2.17-.93,.72-1.89,1.46-2.56,2.06-.43,.39-1.04,.89-1.7,1.43-1.87,1.53-3.98,3.27-4.58,4.39Zm4.5-3.48c.17-.14,.34-.28,.5-.41,.67-.55,1.29-1.06,1.73-1.45,.65-.58,1.6-1.32,2.53-2.03,.34-.26,.65-.5,.93-.72,2.37,2.62,1.64,3.52,.82,4.52-.77,.94-3.78,1.74-5.27,1.4-1.09-.25-1.23-1-1.24-1.31Zm6.3,1.9c-.39,.55-1.32,.71-2.61,.92h-.09c-.64,.12-1.15,.03-1.52-.24-.22-.16-.36-.37-.44-.56,.13,.01,.27,.02,.41,.02,1.49,0,3.4-.55,4.47-1.3,.04,.51-.03,.9-.21,1.16Z"/>
</svg>