<?xml version="1.0" encoding="UTF-8"?><svg id="Layer_1" xmlns="http://www.w3.org/2000/svg" viewBox="0 0 50 50"><defs><style>.cls-1{fill:#f2f2f7;}.cls-2{fill:#b0f4ff;}.cls-3{fill:#cfffff;}.cls-4{fill:#defffe;}.cls-5{fill:#d6d6d6;}.cls-6{fill:#231f20;}.cls-7{fill:#24d3d3;}</style></defs><path class="cls-6" d="M43.83,21.92c.13-1.64-.98-4.91-2.11-7.94l-.22-.6c-.24-.65-.64-1.61-1.23-2.47,.24-.47,.67-1.52,.18-2.47-.44-.84-1.98-1.67-2.96-1.36-.25,.08-.78,.36-.83,1.19-.35,.04-.75,.26-1.21,.78-.58,.66-.73,1.24-.85,1.75-.14,.54-.24,.97-.88,1.47-.81,.62-1.44,1.02-1.95,.9-.39-.09-.76-.49-1.14-1.25-.75-1.48-1.76-2.37-2.72-2.37h0c-.62,0-1.14,.37-1.47,1.04-.32,.64-.5,1.28-.67,1.85-.21,.73-.39,1.36-.76,1.6-.2,.13-.38,.2-.57,.28-.56,.22-1.14,.44-2.01,1.91h0c-.04,.08-3.67,6.66-7.14,8.92-1.32,.86-2.9,1.67-4.42,2.45-2.62,1.34-5.1,2.61-5.97,4.01-.63,1.01-.79,1.85-.48,2.55,0,.02,.02,.03,.03,.05-.34,2.38,.77,4,3.61,5.22,1.41,.6,3.75,.96,6.49,.96,3.02,0,6.54-.44,9.82-1.45,3.4-1.05,5.81-2.62,7.6-4.93,1.3-1.67,2.27-2.39,4.97-2.51,3.09-.14,6.94-1.57,8.3-4.04,1.32-2.39-.83-4.93-1.39-5.54Zm-.83,.09c-.22,1.29-2.89,3.12-5.68,4.35,1.06-1.83,1.87-4.91,2.48-7.6,.42-1.83,1.43-2.25,1.92-2.35,.7,2,1.46,4.51,1.28,5.6Zm-5.27-14.15c.56-.18,1.71,.44,1.97,.95,.23,.44,.12,.96-.02,1.34-.29-.32-.6-.61-.95-.83-.25-.16-.47-.32-.66-.47-.2-.15-.39-.29-.6-.41-.01-.48,.18-.57,.25-.59Zm-3.52,5.05c.87-.67,1.03-1.33,1.18-1.92,.12-.46,.22-.9,.67-1.41,.29-.32,.47-.48,.65-.51,.27,1.94,.29,2.03,.63,3.33l.11,.41c.19,.73,.2,1.1,.05,1.35-.26,.43-1.19,.74-2.6,1.09-1.04,.26-1.81-.03-2.37-.47-.06-.06-.12-.1-.18-.15-.22-.2-.4-.43-.55-.64,.83,.07,1.64-.49,2.41-1.08Zm-7.66-.24c.15-.53,.33-1.14,.61-1.72,.19-.38,.44-.58,.73-.58h0c.47,0,1.27,.5,1.98,1.91,.23,.46,.47,.81,.73,1.08l-.05,.02c.03,.09,.07,.18,.11,.28-1.63-.59-3.33-.35-4.43-.05,.11-.29,.21-.6,.31-.94Zm-3.45,4.03l1.13,1.04-1.95,.36c.44-.72,.73-1.23,.82-1.4Zm5.66,1.05c.22-.04,.37-.26,.33-.48-.04-.22-.26-.37-.48-.33l-1.22,.22c.49-.75,1.13-.74,1.59-.73,.16,0,.3,0,.42-.02,1.53,.08,3.86,.47,4.19,1.1,.04,.08,.03,.11,.02,.13-.2,.47-1.88,.96-2.99,1.28-.41,.12-.8,.23-1.14,.34-1.44,.47-1.77,1.47-2.18,2.73-.17,.53-.37,1.13-.68,1.8-.62,1.33-1.29,1.47-2.41,1.7-.58,.12-1.24,.25-2.01,.58-.52,.22-.82,.32-.99,.36,.06-.22,.18-.57,.3-.89,.1-.27,.21-.58,.33-.93,.17-.5,.31-.78,.44-.94l.75,1.33c.08,.13,.22,.21,.36,.21,.07,0,.14-.02,.2-.05,.2-.11,.27-.36,.16-.56l-.62-1.1c.26,0,.57-.06,.91-.29,.3-.2,.59-.49,.88-.85,1.31-.13,1.38-.18,1.45-.25,.18-.15,.2-.41,.05-.58-.12-.14-.31-.18-.47-.12-.07,.01-.22,.03-.42,.06,.31-.51,.6-1.08,.86-1.72l.5,.46c.08,.07,.18,.11,.28,.11,.11,0,.22-.04,.3-.13,.15-.17,.14-.43-.02-.58l-.75-.69c.1-.27,.19-.56,.27-.84l1.77-.32Zm-5.87,4.92c-.08,0-.15,0-.22,0l-.06-.1c.38-.03,.73-.06,1.03-.08-.02,.02-.04,.04-.06,.05-.25,.17-.43,.16-.69,.14Zm3.16-4.37l-.05-.05h.07l-.02,.05Zm-.3,.84c-.38,.96-.82,1.8-1.27,2.43-.66,.06-1.47,.13-2.32,.19l-1.05-1.85c.2-.3,.4-.59,.57-.86l3.3-.61,.76,.7Zm-5.16,1.52l.66,1.17c-.55,.04-1.1,.08-1.62,.12,.34-.43,.66-.87,.96-1.29Zm-9.36,7.66c1.54-.79,3.14-1.6,4.5-2.49,1.1-.71,2.19-1.81,3.19-3,1.08-.08,2-.15,2.78-.21l.17,.3c-.29,.24-.55,.67-.8,1.42-.12,.34-.23,.64-.32,.91-.37,1-.55,1.51-.19,1.85,.13,.12,.28,.18,.47,.18,.33,0,.8-.16,1.5-.46,.7-.29,1.31-.42,1.86-.53,1.18-.24,2.2-.45,2.99-2.16,.33-.71,.54-1.34,.72-1.89,.39-1.2,.61-1.86,1.65-2.21,.33-.11,.71-.22,1.11-.33,1.91-.55,3.19-.97,3.52-1.75,.12-.27,.1-.56-.05-.84-.68-1.29-4.26-1.51-4.97-1.54l-.05-.03-.1,.06c-.05,0-.12,0-.21,0-.59-.02-1.9-.03-2.61,1.74l-1.14,.21-1.68-1.55c.47-.63,.8-.77,1.17-.91,.2-.08,.43-.17,.68-.33,.08-.04,4.07-1.77,6.63,.69h0c.55,.42,1.24,.73,2.09,.73,.3,0,.62-.04,.96-.12,1.74-.43,2.7-.77,3.11-1.46,.32-.53,.25-1.15,.04-1.98l-.11-.41c-.29-1.11-.33-1.3-.53-2.66,.2,.15,.42,.31,.68,.48,1.29,.82,2.12,2.81,2.41,3.63l.23,.61c.13,.35,.31,.83,.51,1.37-.73,.19-1.96,.82-2.45,2.94-.41,1.79-1.65,7.2-3.2,8.4-1.53,.56-2.22,1.06-3.45,1.95-1.09,.8-2.74,2-5.93,3.93-2.81-3.7-10.11-2.7-14.09-2.15-.77,.11-1.41,.2-1.86,.23-.89,.06-1.58-.09-1.99-.45-.2-.17-.29-.36-.34-.5,.92-.54,1.99-1.09,3.09-1.65Zm-5.65,3.71c.34-.54,1-1.08,1.85-1.63,.1,.21,.23,.45,.48,.67,.58,.53,1.46,.75,2.61,.67,.46-.03,1.12-.12,1.91-.23,3.78-.52,10.69-1.47,13.26,1.76-3.37,1.9-9.11,3.66-17.86,1.89-1.53-.31-2.43-.76-2.68-1.34-.19-.43-.04-1.03,.43-1.79Zm38.91-4.98c-1.21,2.18-4.83,3.49-7.62,3.61-2.99,.13-4.18,1.02-5.58,2.83-1.68,2.17-3.97,3.65-7.2,4.65-6.08,1.88-12.9,1.74-15.73,.52-2.18-.93-3.14-2.01-3.17-3.6,.56,.39,1.37,.69,2.48,.91,2.61,.53,4.96,.75,7.07,.75,5.47,0,9.31-1.48,11.79-2.97,3.44-2.06,5.16-3.33,6.31-4.16,1.26-.92,1.84-1.34,3.31-1.87,2.47-.88,6.33-2.88,7.4-4.86,.67,.84,1.81,2.63,.95,4.19Z"/><g><path class="cls-7" d="M5.17,33.83c-.19-.44-.05-1.03,.43-1.79,.33-.55,1-1.08,1.85-1.63,.09,.21,.23,.45,.48,.67,.59,.53,1.46,.76,2.62,.68,.46-.03,1.11-.12,1.91-.23,3.78-.53,10.69-1.47,13.27,1.75-3.37,1.9-9.11,3.66-17.87,1.89-1.52-.31-2.43-.76-2.68-1.33Z"/><path class="cls-3" d="M21.26,21.83c-.56,.04-1.1,.08-1.62,.12,.34-.43,.66-.87,.95-1.29l.67,1.17Z"/><path class="cls-3" d="M22.89,22.67c-.07,0-.15,0-.22,0l-.06-.1c.38-.03,.73-.06,1.03-.09l-.06,.06c-.25,.17-.44,.16-.7,.14Z"/><path class="cls-3" d="M24.23,17.74l-1.95,.36c.45-.72,.74-1.22,.83-1.39l1.12,1.03Z"/><path class="cls-3" d="M22.16,21.76l-1.04-1.85c.2-.3,.39-.6,.57-.87l3.3-.61,.77,.7c-.38,.96-.82,1.8-1.27,2.44-.66,.05-1.46,.12-2.32,.19Z"/><path class="cls-5" d="M26.07,18.24s0,.04-.02,.05l-.05-.04h.07Z"/><path class="cls-2" d="M26.25,13.61c.12-.29,.21-.61,.31-.94,.16-.53,.33-1.13,.62-1.71,.19-.39,.44-.58,.73-.58h0c.47,0,1.27,.5,1.98,1.91,.24,.46,.48,.81,.73,1.08h-.04c.03,.1,.07,.2,.11,.29-1.63-.59-3.33-.35-4.44-.05Z"/><path class="cls-4" d="M25.54,21.47c.31-.51,.6-1.07,.87-1.72l.5,.47c.08,.07,.19,.11,.29,.11,.11,0,.22-.05,.3-.13,.16-.17,.15-.44-.02-.59l-.75-.69c.09-.28,.18-.56,.27-.85l1.77-.33c.22-.04,.37-.26,.33-.48-.04-.23-.26-.38-.48-.34l-1.22,.23c.49-.76,1.13-.75,1.59-.74,.16,0,.3,0,.42-.02,1.53,.08,3.87,.48,4.2,1.1,.04,.07,.03,.11,.02,.13-.2,.48-1.88,.95-2.99,1.28-.4,.11-.8,.23-1.13,.34-1.44,.48-1.77,1.47-2.18,2.74-.18,.53-.38,1.13-.69,1.8-.62,1.33-1.29,1.47-2.41,1.69-.58,.12-1.24,.26-2.01,.58-.53,.22-.83,.32-.99,.37,.06-.22,.19-.57,.31-.89,.1-.28,.21-.59,.33-.93,.17-.5,.31-.79,.44-.93l.76,1.33c.07,.13,.21,.21,.36,.21,.07,0,.14-.02,.2-.06,.2-.11,.27-.36,.16-.56l-.63-1.1c.27,0,.58-.05,.91-.29,.3-.2,.59-.5,.88-.85,1.3-.13,1.38-.19,1.45-.25,.17-.15,.2-.41,.05-.58-.12-.14-.31-.19-.47-.12-.07,0-.22,.03-.42,.05Z"/><path class="cls-7" d="M32.36,14.63c-.23-.21-.41-.43-.55-.65,.83,.08,1.64-.49,2.41-1.07,.87-.68,1.03-1.34,1.17-1.92,.12-.47,.23-.91,.68-1.41,.29-.32,.47-.48,.65-.51,.28,1.95,.3,2.04,.64,3.33l.1,.41c.19,.73,.2,1.1,.05,1.35-.26,.44-1.18,.74-2.6,1.08-1.04,.26-1.81-.03-2.37-.47-.06-.05-.12-.1-.18-.15Z"/><path class="cls-1" d="M38.08,8.85c-.2-.15-.39-.29-.59-.41-.02-.48,.17-.57,.25-.59,.56-.18,1.7,.44,1.97,.95,.23,.44,.13,.95-.02,1.33-.28-.32-.6-.61-.94-.83-.26-.16-.47-.32-.67-.47Z"/><path class="cls-2" d="M8.49,30.48c-.2-.17-.29-.36-.34-.51,.91-.54,1.99-1.08,3.08-1.65,1.55-.79,3.14-1.6,4.51-2.49,1.09-.72,2.19-1.81,3.18-2.99,1.08-.08,2-.15,2.78-.21l.17,.3c-.3,.24-.55,.68-.81,1.42-.11,.34-.23,.64-.32,.9-.37,1-.56,1.51-.19,1.85,.12,.12,.27,.18,.47,.18,.34,0,.8-.17,1.5-.46,.7-.29,1.31-.42,1.86-.53,1.17-.24,2.2-.45,2.99-2.16,.33-.72,.53-1.34,.71-1.89,.4-1.2,.62-1.86,1.66-2.21,.33-.11,.72-.22,1.1-.34,1.92-.55,3.19-.97,3.52-1.75,.12-.27,.1-.56-.05-.84-.68-1.29-4.26-1.51-4.96-1.54l-.05-.03-.11,.05s-.12,0-.2,0c-.59,0-1.9-.02-2.62,1.74l-1.14,.22-1.68-1.56c.48-.64,.81-.77,1.17-.91,.2-.08,.43-.18,.68-.34,.08-.03,4.07-1.76,6.62,.7h0c.55,.42,1.24,.73,2.09,.73,.3,0,.63-.04,.96-.12,1.74-.43,2.7-.78,3.11-1.46,.32-.54,.25-1.15,.04-1.98l-.11-.42c-.29-1.1-.34-1.29-.53-2.66,.2,.15,.42,.31,.68,.48,1.29,.82,2.12,2.81,2.42,3.63l.23,.62c.13,.35,.31,.83,.51,1.37-.74,.19-1.96,.82-2.45,2.93-.41,1.79-1.64,7.2-3.2,8.39-1.53,.56-2.22,1.06-3.44,1.96-1.09,.8-2.74,2-5.93,3.93-2.81-3.7-10.11-2.71-14.09-2.16-.78,.11-1.41,.2-1.86,.23-.9,.06-1.58-.09-1.99-.45Z"/><path class="cls-4" d="M41.73,16.41c.69,1.99,1.45,4.51,1.27,5.59-.21,1.29-2.88,3.12-5.67,4.36,1.05-1.83,1.86-4.91,2.48-7.6,.42-1.83,1.43-2.26,1.92-2.35Z"/><path class="cls-1" d="M44.5,27.04c-1.21,2.19-4.83,3.49-7.62,3.62-2.98,.13-4.19,1.01-5.59,2.82-1.68,2.17-3.97,3.65-7.19,4.64-6.08,1.89-12.9,1.74-15.73,.53-2.18-.93-3.14-2.02-3.17-3.6,.56,.39,1.37,.69,2.49,.91,2.61,.52,4.95,.75,7.07,.75,5.47,0,9.31-1.49,11.79-2.97,3.44-2.06,5.16-3.32,6.31-4.16,1.26-.93,1.84-1.34,3.31-1.87,2.47-.89,6.33-2.88,7.39-4.86,.68,.85,1.82,2.63,.95,4.19Z"/></g></svg>